<svg width="22" height="23" viewBox="0 0 22 23" fill="none" xmlns="http://www.w3.org/2000/svg">
<path d="M14.2083 13.3166H13.4842L13.2275 13.0691C14.1569 11.9911 14.6677 10.6149 14.6667 9.19155C14.6667 8.0131 14.3172 6.86112 13.6625 5.88128C13.0078 4.90144 12.0772 4.13774 10.9885 3.68677C9.89975 3.2358 8.70173 3.1178 7.54592 3.34771C6.39012 3.57761 5.32845 4.14509 4.49516 4.97837C3.66187 5.81166 3.09439 6.87333 2.86449 8.02914C2.63459 9.18494 2.75258 10.383 3.20355 11.4717C3.65453 12.5604 4.41822 13.491 5.39806 14.1457C6.37791 14.8004 7.52989 15.1499 8.70834 15.1499C10.1842 15.1499 11.5408 14.6091 12.5858 13.7107L12.8333 13.9674V14.6916L17.4167 19.2657L18.7825 17.8999L14.2083 13.3166ZM8.70834 13.3166C6.42584 13.3166 4.58334 11.4741 4.58334 9.19155C4.58334 6.90905 6.42584 5.06655 8.70834 5.06655C10.9908 5.06655 12.8333 6.90905 12.8333 9.19155C12.8333 11.4741 10.9908 13.3166 8.70834 13.3166Z" fill="#383838" fill-opacity="0.62"/>
</svg>
