<svg width="37" height="28" viewBox="0 0 37 28" fill="none" xmlns="http://www.w3.org/2000/svg">
<path d="M35.5665 4.85147C36.387 7.87478 36.387 14.1861 36.387 14.1861C36.387 14.1861 36.387 20.4974 35.5665 23.5207C35.1104 25.1918 33.7765 26.5066 32.087 26.9511C29.0187 27.7587 18.433 27.7587 18.433 27.7587C18.433 27.7587 7.8528 27.7587 4.77909 26.9511C3.08244 26.4999 1.75026 25.1867 1.29962 23.5207C0.479126 20.4974 0.479126 14.1861 0.479126 14.1861C0.479126 14.1861 0.479126 7.87478 1.29962 4.85147C1.75565 3.18033 3.08962 1.86548 4.77909 1.42098C7.8528 0.613403 18.433 0.613403 18.433 0.613403C18.433 0.613403 29.0187 0.613403 32.087 1.42098C33.7836 1.87227 35.1158 3.18542 35.5665 4.85147ZM14.8423 20.1241L25.6146 14.1861L14.8423 8.24802V20.1241Z" fill="black"/>
</svg>
