<svg width="37" height="28" viewBox="0 0 37 28" fill="none" xmlns="http://www.w3.org/2000/svg">
<path d="M12.9767 12.5233H8.47257V8.87514H12.9767C13.4886 8.87514 13.9796 9.06732 14.3416 9.40941C14.7036 9.75149 14.907 10.2155 14.907 10.6992C14.907 11.183 14.7036 11.647 14.3416 11.9891C13.9796 12.3312 13.4886 12.5233 12.9767 12.5233ZM13.6201 14.9555H8.47257V19.8197H13.6201C14.3027 19.8197 14.9574 19.5635 15.4401 19.1074C15.9227 18.6513 16.1939 18.0327 16.1939 17.3876C16.1939 16.7426 15.9227 16.124 15.4401 15.6678C14.9574 15.2117 14.3027 14.9555 13.6201 14.9555ZM26.489 12.5233C25.6909 12.5236 24.9124 12.7576 24.2608 13.1931C23.6092 13.6287 23.1164 14.2444 22.8504 14.9555H30.1277C29.8617 14.2444 29.3689 13.6287 28.7173 13.1931C28.0657 12.7576 27.2872 12.5236 26.489 12.5233ZM36.7842 2.79481V24.684C36.7842 25.3291 36.513 25.9477 36.0303 26.4038C35.5476 26.8599 34.893 27.1162 34.2104 27.1162H3.325C2.64239 27.1162 1.98774 26.8599 1.50506 26.4038C1.02239 25.9477 0.751221 25.3291 0.751221 24.684V2.79481C0.751221 2.14976 1.02239 1.53114 1.50506 1.07503C1.98774 0.618913 2.64239 0.362671 3.325 0.362671H34.2104C34.893 0.362671 35.5476 0.618913 36.0303 1.07503C36.513 1.53114 36.7842 2.14976 36.7842 2.79481ZM21.3415 7.65908C21.3415 7.9816 21.4771 8.29091 21.7184 8.51896C21.9597 8.74702 22.2871 8.87514 22.6284 8.87514H30.3497C30.691 8.87514 31.0183 8.74702 31.2597 8.51896C31.501 8.29091 31.6366 7.9816 31.6366 7.65908C31.6366 7.33655 31.501 7.02724 31.2597 6.79919C31.0183 6.57113 30.691 6.44301 30.3497 6.44301H22.6284C22.2871 6.44301 21.9597 6.57113 21.7184 6.79919C21.4771 7.02724 21.3415 7.33655 21.3415 7.65908ZM18.7677 17.3876C18.7673 16.5909 18.5598 15.8065 18.1635 15.1033C17.7671 14.4002 17.1941 13.7997 16.4947 13.3548C17.0238 12.7287 17.355 11.9741 17.4504 11.178C17.5457 10.3819 17.4014 9.57645 17.0339 8.85439C16.6663 8.13234 16.0906 7.52298 15.3729 7.0964C14.6552 6.66982 13.8246 6.44334 12.9767 6.44301H7.18568C6.84437 6.44301 6.51705 6.57113 6.27571 6.79919C6.03437 7.02724 5.89879 7.33655 5.89879 7.65908V21.0358C5.89879 21.3583 6.03437 21.6677 6.27571 21.8957C6.51705 22.1238 6.84437 22.2519 7.18568 22.2519H13.6201C14.9854 22.2519 16.2947 21.7394 17.26 20.8272C18.2254 19.9149 18.7677 18.6777 18.7677 17.3876ZM32.9235 16.1715C32.9234 14.7812 32.4191 13.4328 31.4945 12.3512C30.57 11.2696 29.2811 10.5201 27.8427 10.2276C26.4042 9.93512 24.9032 10.1173 23.5897 10.7438C22.2761 11.3703 21.2295 12.4033 20.6243 13.6706C20.019 14.9379 19.8916 16.3629 20.2634 17.7082C20.6351 19.0534 21.4835 20.2377 22.6672 21.0635C23.8509 21.8893 25.2984 22.3068 26.7684 22.2465C28.2383 22.1861 29.642 21.6515 30.7454 20.7318C31.0014 20.5183 31.1572 20.2175 31.1784 19.8955C31.1997 19.5735 31.0847 19.2568 30.8588 19.0149C30.747 18.8951 30.6113 18.7973 30.4594 18.7271C30.3076 18.6569 30.1426 18.6156 29.9739 18.6057C29.6331 18.5856 29.2979 18.6942 29.0419 18.9077C28.5681 19.3021 27.9992 19.5807 27.385 19.7191C26.7708 19.8575 26.1301 19.8513 25.519 19.7013C24.9079 19.5513 24.345 19.2619 23.8797 18.8585C23.4145 18.4551 23.061 17.9501 22.8504 17.3876H31.6366C31.9779 17.3876 32.3052 17.2595 32.5466 17.0314C32.7879 16.8034 32.9235 16.4941 32.9235 16.1715Z" fill="black"/>
</svg>
