<svg width="28" height="28" viewBox="0 0 28 28" fill="none" xmlns="http://www.w3.org/2000/svg">
<path d="M13.9033 0.397949C12.0982 0.397949 10.3108 0.751604 8.64306 1.43872C6.97538 2.12584 5.46008 3.13296 4.18369 4.40259C1.6059 6.96672 0.157715 10.4444 0.157715 14.0706C0.157715 20.114 4.10269 25.2412 9.55967 27.0597C10.2469 27.1691 10.4669 26.7452 10.4669 26.3761V24.0654C6.65936 24.8857 5.84837 22.2332 5.84837 22.2332C5.21607 20.6472 4.32261 20.2234 4.32261 20.2234C3.07177 19.3757 4.41883 19.403 4.41883 19.403C5.79339 19.4987 6.5219 20.8113 6.5219 20.8113C7.71776 22.8895 9.73836 22.2743 10.5219 21.9461C10.6456 21.0574 11.0029 20.4558 11.3878 20.114C8.33631 19.7722 5.1336 18.5963 5.1336 13.387C5.1336 11.8693 5.65593 10.6525 6.54939 9.68171C6.41194 9.33989 5.93084 7.91793 6.68685 6.07212C6.68685 6.07212 7.84147 5.70296 10.4669 7.46673C11.5528 7.16593 12.7349 7.01553 13.9033 7.01553C15.0716 7.01553 16.2537 7.16593 17.3396 7.46673C19.965 5.70296 21.1197 6.07212 21.1197 6.07212C21.8757 7.91793 21.3946 9.33989 21.2571 9.68171C22.1506 10.6525 22.6729 11.8693 22.6729 13.387C22.6729 18.61 19.4565 19.7585 16.3912 20.1003C16.886 20.5242 17.3396 21.3582 17.3396 22.6298V26.3761C17.3396 26.7452 17.5596 27.1828 18.2606 27.0597C23.7176 25.2276 27.6488 20.114 27.6488 14.0706C27.6488 12.2751 27.2933 10.4972 26.6025 8.83833C25.9117 7.17948 24.8992 5.67222 23.6228 4.40259C22.3464 3.13296 20.8311 2.12584 19.1634 1.43872C17.4958 0.751604 15.7083 0.397949 13.9033 0.397949Z" fill="black"/>
</svg>
