<svg width="31" height="27" viewBox="0 0 31 27" fill="none" xmlns="http://www.w3.org/2000/svg">
<path d="M27.3477 0.818481C28.2303 0.818481 29.0767 1.12099 29.7008 1.65946C30.3249 2.19792 30.6755 2.92824 30.6755 3.68975V23.7886C30.6755 24.5501 30.3249 25.2804 29.7008 25.8189C29.0767 26.3574 28.2303 26.6599 27.3477 26.6599H4.0526C3.16999 26.6599 2.32354 26.3574 1.69944 25.8189C1.07534 25.2804 0.724731 24.5501 0.724731 23.7886V3.68975C0.724731 2.92824 1.07534 2.19792 1.69944 1.65946C2.32354 1.12099 3.16999 0.818481 4.0526 0.818481H27.3477ZM26.5157 23.0708V15.4619C26.5157 14.2207 25.9442 13.0303 24.9269 12.1526C23.9097 11.2749 22.5299 10.7818 21.0913 10.7818C19.6769 10.7818 18.0296 11.5283 17.231 12.6481V11.0545H12.5886V23.0708H17.231V15.9931C17.231 14.8877 18.2626 13.9832 19.5438 13.9832C20.1616 13.9832 20.7542 14.195 21.191 14.5719C21.6279 14.9488 21.8733 15.4601 21.8733 15.9931V23.0708H26.5157ZM7.1808 8.8006C7.92218 8.8006 8.63321 8.5465 9.15745 8.09418C9.68169 7.64187 9.9762 7.0284 9.9762 6.38874C9.9762 5.0536 8.72825 3.96252 7.1808 3.96252C6.43499 3.96252 5.71974 4.21814 5.19238 4.67314C4.66502 5.12815 4.36875 5.74527 4.36875 6.38874C4.36875 7.72388 5.63334 8.8006 7.1808 8.8006ZM9.49366 23.0708V11.0545H4.88457V23.0708H9.49366Z" fill="black"/>
</svg>
