<svg width="22" height="29" viewBox="0 0 22 29" fill="none" xmlns="http://www.w3.org/2000/svg">
<path d="M3.55682 21.1818V27H2.52841V21.1818H3.55682ZM6.51776 27.0852C6.09162 27.0852 5.7223 26.9915 5.4098 26.804C5.0973 26.6165 4.85488 26.3542 4.68253 26.017C4.51207 25.6799 4.42685 25.286 4.42685 24.8352C4.42685 24.3845 4.51207 23.9896 4.68253 23.6506C4.85488 23.3116 5.0973 23.0483 5.4098 22.8608C5.7223 22.6733 6.09162 22.5795 6.51776 22.5795C6.94389 22.5795 7.31321 22.6733 7.62571 22.8608C7.93821 23.0483 8.17969 23.3116 8.35014 23.6506C8.52249 23.9896 8.60866 24.3845 8.60866 24.8352C8.60866 25.286 8.52249 25.6799 8.35014 26.017C8.17969 26.3542 7.93821 26.6165 7.62571 26.804C7.31321 26.9915 6.94389 27.0852 6.51776 27.0852ZM6.52344 26.2614C6.7545 26.2614 6.94768 26.1979 7.10298 26.071C7.25829 25.9422 7.37382 25.7699 7.44957 25.554C7.52723 25.3381 7.56605 25.0975 7.56605 24.8324C7.56605 24.5653 7.52723 24.3239 7.44957 24.108C7.37382 23.8902 7.25829 23.7169 7.10298 23.5881C6.94768 23.4593 6.7545 23.3949 6.52344 23.3949C6.2867 23.3949 6.08973 23.4593 5.93253 23.5881C5.77723 23.7169 5.66075 23.8902 5.5831 24.108C5.50734 24.3239 5.46946 24.5653 5.46946 24.8324C5.46946 25.0975 5.50734 25.3381 5.5831 25.554C5.66075 25.7699 5.77723 25.9422 5.93253 26.071C6.08973 26.1979 6.2867 26.2614 6.52344 26.2614ZM11.3793 28.7273C11.0099 28.7273 10.6927 28.6771 10.4276 28.5767C10.1624 28.4782 9.94934 28.3456 9.78835 28.179C9.62737 28.0123 9.51562 27.8277 9.45312 27.625L10.3793 27.4006C10.4209 27.4858 10.4815 27.5701 10.5611 27.6534C10.6406 27.7386 10.7476 27.8087 10.8821 27.8636C11.0185 27.9205 11.1899 27.9489 11.3963 27.9489C11.688 27.9489 11.9295 27.8778 12.1207 27.7358C12.312 27.5956 12.4077 27.3646 12.4077 27.0426V26.2159H12.3565C12.3035 26.322 12.2259 26.4309 12.1236 26.5426C12.0232 26.6544 11.8897 26.7481 11.723 26.8239C11.5582 26.8996 11.3509 26.9375 11.1009 26.9375C10.7656 26.9375 10.4616 26.8589 10.1889 26.7017C9.91809 26.5426 9.70218 26.3059 9.54119 25.9915C9.3821 25.6752 9.30256 25.2794 9.30256 24.804C9.30256 24.3248 9.3821 23.9205 9.54119 23.5909C9.70218 23.2595 9.91903 23.0085 10.1918 22.8381C10.4645 22.6657 10.7685 22.5795 11.1037 22.5795C11.3594 22.5795 11.5696 22.6231 11.7344 22.7102C11.901 22.7955 12.0336 22.8987 12.1321 23.0199C12.2306 23.1392 12.3054 23.2519 12.3565 23.358H12.4134V22.6364H13.4276V27.071C13.4276 27.4441 13.3385 27.7528 13.1605 27.9972C12.9825 28.2415 12.7391 28.4242 12.4304 28.5455C12.1217 28.6667 11.7713 28.7273 11.3793 28.7273ZM11.3878 26.1307C11.6056 26.1307 11.7912 26.0777 11.9446 25.9716C12.098 25.8655 12.2145 25.7131 12.294 25.5142C12.3736 25.3153 12.4134 25.0767 12.4134 24.7983C12.4134 24.5237 12.3736 24.2831 12.294 24.0767C12.2164 23.8703 12.1009 23.7102 11.9474 23.5966C11.7959 23.4811 11.6094 23.4233 11.3878 23.4233C11.1586 23.4233 10.9673 23.483 10.8139 23.6023C10.6605 23.7216 10.545 23.8854 10.4673 24.0938C10.3897 24.3002 10.3509 24.535 10.3509 24.7983C10.3509 25.0653 10.3897 25.2992 10.4673 25.5C10.5469 25.6989 10.6634 25.8542 10.8168 25.9659C10.9721 26.0758 11.1624 26.1307 11.3878 26.1307ZM14.4815 27V22.6364H15.5099V27H14.4815ZM14.9986 22.017C14.8357 22.017 14.6955 21.9631 14.5781 21.8551C14.4607 21.7453 14.402 21.6136 14.402 21.4602C14.402 21.3049 14.4607 21.1733 14.5781 21.0653C14.6955 20.9555 14.8357 20.9006 14.9986 20.9006C15.1634 20.9006 15.3035 20.9555 15.419 21.0653C15.5365 21.1733 15.5952 21.3049 15.5952 21.4602C15.5952 21.6136 15.5365 21.7453 15.419 21.8551C15.3035 21.9631 15.1634 22.017 14.9986 22.017ZM17.5959 24.4432V27H16.5675V22.6364H17.5504V23.3778H17.6016C17.7019 23.1335 17.862 22.9394 18.0817 22.7955C18.3033 22.6515 18.5769 22.5795 18.9027 22.5795C19.2038 22.5795 19.4661 22.6439 19.6896 22.7727C19.915 22.9015 20.0893 23.0881 20.2124 23.3324C20.3374 23.5767 20.3989 23.8731 20.397 24.2216V27H19.3686V24.3807C19.3686 24.089 19.2929 23.8608 19.1413 23.696C18.9917 23.5312 18.7843 23.4489 18.5192 23.4489C18.3393 23.4489 18.1792 23.4886 18.0391 23.5682C17.9008 23.6458 17.7919 23.7585 17.7124 23.9062C17.6347 24.054 17.5959 24.233 17.5959 24.4432Z" fill="black"/>
<path fill-rule="evenodd" clip-rule="evenodd" d="M11.0001 3.66671C9.71741 3.66647 8.45715 4.00265 7.34504 4.6417C6.23293 5.28074 5.30789 6.2003 4.66223 7.30858C4.01658 8.41686 3.6729 9.67511 3.6655 10.9577C3.65809 12.2403 3.98723 13.5025 4.62005 14.6181C5.04778 14.0622 5.59761 13.6122 6.22705 13.3027C6.85648 12.9932 7.54865 12.8326 8.25005 12.8334H13.7501C14.4514 12.8326 15.1436 12.9932 15.7731 13.3027C16.4025 13.6122 16.9523 14.0622 17.3801 14.6181C18.0129 13.5025 18.342 12.2403 18.3346 10.9577C18.3272 9.67511 17.9835 8.41686 17.3379 7.30858C16.6922 6.2003 15.7672 5.28074 14.6551 4.6417C13.543 4.00265 12.2827 3.66647 11.0001 3.66671ZM18.2811 16.5697C19.5067 14.9719 20.1697 13.0137 20.1667 11C20.1667 5.93729 16.0628 1.83337 11.0001 1.83337C5.9373 1.83337 1.83338 5.93729 1.83338 11C1.83036 13.0138 2.4933 14.972 3.71897 16.5697L3.71438 16.5862L4.0398 16.9648C4.89953 17.9699 5.96699 18.7767 7.1686 19.3295C8.37021 19.8822 9.67739 20.1679 11.0001 20.1667C12.8584 20.1701 14.6735 19.6056 16.2021 18.5488C16.8538 18.0985 17.4447 17.5661 17.9603 16.9648L18.2857 16.5862L18.2811 16.5697ZM11.0001 5.50004C10.2707 5.50004 9.57123 5.78977 9.05551 6.3055C8.53978 6.82122 8.25005 7.5207 8.25005 8.25004C8.25005 8.97939 8.53978 9.67886 9.05551 10.1946C9.57123 10.7103 10.2707 11 11.0001 11C11.7294 11 12.4289 10.7103 12.9446 10.1946C13.4603 9.67886 13.7501 8.97939 13.7501 8.25004C13.7501 7.5207 13.4603 6.82122 12.9446 6.3055C12.4289 5.78977 11.7294 5.50004 11.0001 5.50004Z" fill="black"/>
</svg>
