<svg width="25" height="25" viewBox="0 0 25 25" fill="none" xmlns="http://www.w3.org/2000/svg">
<path d="M22.5 0H2.5C1.83718 0.000709029 1.2017 0.264329 0.733016 0.733016C0.264329 1.2017 0.000709029 1.83718 0 2.5V22.5C0 23.8786 1.12143 25 2.5 25H22.5C23.8786 25 25 23.8786 25 22.5V2.5C25 1.12143 23.8786 0 22.5 0ZM21.0384 8.30357C20.9607 10.0616 19.733 12.4723 17.3554 15.5241C14.9 18.7161 12.8187 20.3125 11.1223 20.3125C10.0679 20.3125 9.18036 19.342 8.44911 17.3938C7.02589 12.1875 6.41786 9.13482 5.24643 9.13482C5.1125 9.13482 4.63839 9.41964 3.82946 9.98304L2.98125 8.88929C5.0625 7.05893 7.04911 5.02768 8.29375 4.91607C9.7 4.78214 10.5652 5.74196 10.8884 7.80089C12.0437 15.1223 12.5571 16.2277 14.6607 12.9125C15.4143 11.7187 15.8214 10.8089 15.8777 10.1839C16.0732 8.33125 14.4321 8.45982 13.3214 8.93393C14.2089 6.02679 15.9054 4.61429 18.4107 4.69286C20.2688 4.74286 21.1446 5.94821 21.0384 8.30357Z" fill="#19B7EA"/>
</svg>
